<?xml version="1.0" encoding="utf-8"?>
<!-- Generator: Adobe Illustrator 28.0.0, SVG Export Plug-In . SVG Version: 6.00 Build 0)  -->
<svg version="1.1" id="Layer_1" xmlns="http://www.w3.org/2000/svg" xmlns:xlink="http://www.w3.org/1999/xlink" x="0px" y="0px"
	 viewBox="0 0 64 64" style="enable-background:new 0 0 64 64;" xml:space="preserve">
<g>
	<path d="M60.3,60.1C60.3,60.1,60.3,60,60.3,60.1V22.7c0-0.2-0.1-0.4-0.2-0.6l0,0c0-0.1-0.1-0.1-0.2-0.1l0,0l-10-6.8v-3.6
		c0-0.6-0.4-1-1-1h-5.7L32.6,3.2l0,0c-0.1,0-0.1-0.1-0.2-0.1c0,0-0.1,0-0.1-0.1h-0.1C32.1,3,32,3,32,3h-0.1c-0.1,0-0.2,0.1-0.3,0.1
		l0,0L21,10.4h-5.6c-0.6,0-1,0.4-1,1V15l-10,6.8c0,0,0,0-0.1,0.1C4,21.9,4,22,3.9,22c0,0,0,0-0.1,0.1l0,0v0.1c0,0.1,0,0.1-0.1,0.2
		v0.1v0.1v0.1V60c0,0.6,0.4,1,1,1h54.6l0,0c0.1,0,0.2,0,0.3-0.1c0,0,0,0,0.1,0s0.2-0.1,0.3-0.2c0,0,0,0,0-0.1l0.1-0.1v-0.1
		c0-0.1,0.1-0.1,0.1-0.2C60.3,60.2,60.3,60.2,60.3,60.1z M33.8,41.3l24.5-16.8V58L33.8,41.3z M57.5,22.7l-7.7,5.2V17.4L57.5,22.7z
		 M32,5.2l7.7,5.2H24.3L32,5.2z M47.9,12.4v16.8L32,40.1L16.1,29.3V12.4H47.9z M14.1,27.9l-7.7-5.2l7.7-5.2V27.9z M5.7,24.6L56.1,59
		H5.7V24.6z"/>
	<path d="M19.9,55.1H9.6V44.8c0-0.6-0.4-1-1-1s-1,0.4-1,1v11.3c0,0.6,0.4,1,1,1h11.3c0.6,0,1-0.4,1-1S20.4,55.1,19.9,55.1z"/>
	<path d="M21.5,18.9h21c0.6,0,1-0.4,1-1s-0.4-1-1-1h-21c-0.6,0-1,0.4-1,1S20.9,18.9,21.5,18.9z"/>
	<path d="M21.5,24.8h21c0.6,0,1-0.4,1-1s-0.4-1-1-1h-21c-0.6,0-1,0.4-1,1S20.9,24.8,21.5,24.8z"/>
	<path d="M21.5,30.7h21c0.6,0,1-0.4,1-1s-0.4-1-1-1h-21c-0.6,0-1,0.4-1,1S20.9,30.7,21.5,30.7z"/>
</g>
</svg>
