<?xml version="1.0" encoding="utf-8"?>
<!-- Generator: Adobe Illustrator 28.0.0, SVG Export Plug-In . SVG Version: 6.00 Build 0)  -->
<svg version="1.1" id="Layer_1" xmlns="http://www.w3.org/2000/svg" xmlns:xlink="http://www.w3.org/1999/xlink" x="0px" y="0px"
	 viewBox="0 0 64 64.4" style="enable-background:new 0 0 64 64.4;" xml:space="preserve">
<path d="M44.8,3H19.2C10.3,3,3,10.3,3,19.2v25.6C3,53.7,10.3,61,19.2,61h25.6C53.7,61,61,53.7,61,44.8V19.2C61,10.3,53.7,3,44.8,3z
	 M19.2,5h25.6C52.6,5,59,11.4,59,19.2V31h-8.5c-0.1-2.8-0.9-5.5-2.3-7.9c1.4-0.2,2.8-0.8,3.8-1.8c2.5-2.5,2.5-6.7,0-9.2
	s-6.7-2.5-9.2,0c-1,1-1.7,2.4-1.8,3.8c-2.7-1.5-5.8-2.3-8.9-2.3c-9.9,0-17.9,7.8-18.4,17.5H5V19.2C5,11.4,11.4,5,19.2,5z M41.1,18.2
	c0.3,1.1,0.9,2.1,1.7,3c0.8,0.8,1.9,1.4,3,1.7c1.8,2.7,2.7,5.8,2.7,9.1c0,9.1-7.4,16.5-16.5,16.5S15.5,41.1,15.5,32
	S22.9,15.5,32,15.5C35.3,15.5,38.4,16.5,41.1,18.2z M50.6,19.8c-0.9,0.9-2,1.3-3.2,1.3s-2.3-0.5-3.2-1.3c-0.9-0.9-1.3-2-1.3-3.2
	s0.5-2.3,1.3-3.2c0.9-0.9,2-1.3,3.2-1.3s2.3,0.4,3.2,1.3C52.3,15.2,52.3,18.1,50.6,19.8z M44.8,59H19.2C11.4,59,5,52.6,5,44.8V33
	h8.6c0.5,9.7,8.6,17.5,18.4,17.5S49.9,42.7,50.4,33H59v11.8C59,52.6,52.6,59,44.8,59z M17.5,32c0,8,6.5,14.5,14.5,14.5
	S46.5,40,46.5,32S40,17.5,32,17.5S17.5,24,17.5,32z M44.5,32c0,6.9-5.6,12.5-12.5,12.5S19.5,38.9,19.5,32S25.1,19.5,32,19.5
	S44.5,25.1,44.5,32z M27.4,33.3c-1.8,0-3.3,1.5-3.3,3.3s1.5,3.3,3.3,3.3s3.3-1.5,3.3-3.3S29.2,33.3,27.4,33.3z M27.4,37.9
	c-0.7,0-1.3-0.6-1.3-1.3s0.6-1.3,1.3-1.3s1.3,0.6,1.3,1.3S28.1,37.9,27.4,37.9z"/>
</svg>
