<?xml version="1.0" encoding="utf-8"?>
<!-- Generator: Adobe Illustrator 28.0.0, SVG Export Plug-In . SVG Version: 6.00 Build 0)  -->
<svg version="1.1" id="Layer_1" xmlns="http://www.w3.org/2000/svg" xmlns:xlink="http://www.w3.org/1999/xlink" x="0px" y="0px"
	 viewBox="0 0 64 61.6" style="enable-background:new 0 0 64 61.6;" xml:space="preserve">
<path d="M60.7,7.8c-0.1-0.4-0.5-0.7-1-0.7c-2.2,0.1-4.4,1.3-5.9,3.5c-1.3,1.9-1.8,4.2-1.4,6.1c-1.3,1.6-5.9,7.5-8.4,18.8
	c-3.1,4.8-5,10.7-6,14.9c-0.1-8.5,5.2-16.9,5.3-17c0.2-0.4,0.2-0.8-0.1-1.2c-0.3-0.3-0.7-0.5-1.1-0.3c-11.3,4-11.8,18.8-11.7,22.9
	h-1.7c-2.6-8.4,1.9-15.1,2-15.2c0.2-0.3,0.2-0.8,0-1.1s-0.6-0.5-1-0.4c-4.3,1-6.9,5.1-8.4,9.1c1.4-11.8,8.2-17.9,8.3-18
	c0.3-0.3,0.4-0.8,0.3-1.2c-0.2-0.4-0.6-0.6-1-0.6c-3.3,0.4-6.1,2.1-8.4,4.3c2.5-8.3,6-12.8,6.9-13.8c2.1-0.2,4.1-1.4,5.4-3.4
	c1.5-2.1,1.9-4.6,1.2-6.7c-0.1-0.4-0.5-0.7-1-0.7c-2.2,0.1-4.4,1.3-5.9,3.5c-1.3,1.9-1.8,4.2-1.4,6.1c-1.3,1.6-5.9,7.5-8.4,18.8
	c-3.2,4.8-5.1,10.6-6.1,14.8c-0.1-8.5,5.2-16.9,5.3-17c0.2-0.4,0.2-0.8-0.1-1.2c-0.3-0.3-0.7-0.5-1.1-0.3C3.8,35.9,3.4,51,3.5,55
	C3.2,55.1,3,55.5,3,55.8c0,0.6,0.4,1,1,1h16.2l0,0h7.7l0,0l0,0H47l0,0h7.7l0,0l0,0H57c0.6,0,1-0.4,1-1s-0.4-1-1-1h-1.5
	c-2.6-8.4,1.9-15.1,2-15.2c0.2-0.3,0.2-0.8,0-1.1s-0.6-0.5-1-0.4c-4.3,1-6.9,5.1-8.4,9.1c1.4-11.8,8.2-17.9,8.3-18
	c0.3-0.3,0.4-0.8,0.3-1.2c-0.2-0.4-0.6-0.6-1-0.6c-3.3,0.4-6.1,2.1-8.4,4.3c2.5-8.3,6-12.8,6.9-13.8c2.1-0.2,4.1-1.4,5.4-3.4
	S61.4,10,60.7,7.8z M39.9,35.2c-2.1,4.2-5.3,12.2-3.4,19.7h-4.2C32.3,51.5,32.6,40,39.9,35.2z M27.6,41.2c-1.2,2.9-2.6,7.8-1,13.7
	h-5.3C21.7,52,23.3,44.3,27.6,41.2z M25.7,30.4c-3,3.9-7.7,12.1-6.6,24.5h-6.9C13,50.5,16.5,34.6,25.7,30.4z M28.6,11.8
	c0.9-1.3,2.2-2.2,3.5-2.5c0.2,1.3-0.2,2.9-1.1,4.2s-2.2,2.2-3.5,2.5C27.3,14.6,27.7,13.1,28.6,11.8z M13.1,35.2
	C11,39.4,7.8,47.4,9.7,54.8H5.5C5.5,51.5,5.8,40,13.1,35.2z M54.4,41.2c-1.2,2.9-2.6,7.8-1,13.7h-5.3C48.6,52,50.1,44.3,54.4,41.2z
	 M52.5,30.4c-3,3.9-7.7,12.1-6.6,24.5H39C39.8,50.5,43.3,34.6,52.5,30.4z M57.8,13.4c-0.9,1.3-2.2,2.2-3.5,2.5
	c-0.2-1.3,0.2-2.9,1.1-4.2c0.9-1.3,2.2-2.2,3.5-2.5C59.1,10.6,58.7,12.1,57.8,13.4z"/>
</svg>
